<svg width="40" height="40" viewBox="0 0 40 40" fill="none" xmlns="http://www.w3.org/2000/svg">
<circle cx="20" cy="20" r="20" fill="#14A551"/>
<path d="M22.0645 11C22.9542 11 23.7768 11.2388 24.5322 11.7158C25.2876 12.1928 25.8882 12.841 26.333 13.6611C26.7779 14.4813 27 15.3855 27 16.373C27 17.3604 26.7778 18.2726 26.333 19.1094C25.8882 19.9462 25.2876 20.6074 24.5322 21.0928C23.7768 21.5782 22.9542 21.8213 22.0645 21.8213H17.3301V23.8281H20.6377C20.99 23.8282 21.2793 23.9326 21.5059 24.1416C21.7325 24.3508 21.8457 24.6146 21.8457 24.9326C21.8457 25.2506 21.7325 25.5144 21.5059 25.7236C21.2793 25.9327 20.99 26.037 20.6377 26.0371H17.3301V27.7949C17.3301 28.1296 17.2211 28.4141 17.0029 28.6484C16.7847 28.8828 16.5076 29 16.1719 29C15.8193 29 15.538 28.8871 15.3281 28.6611C15.1183 28.4352 15.0137 28.1464 15.0137 27.7949V26.0371H13.209C12.8564 26.0371 12.5665 25.9329 12.3398 25.7236C12.1132 25.5144 12 25.242 12 24.9072C12.0001 24.5894 12.1133 24.3297 12.3398 24.1289C12.5665 23.9281 12.8565 23.8281 13.209 23.8281H15.0137V21.7461H13.2588C12.9064 21.746 12.6172 21.6365 12.3906 21.4189C12.164 21.2014 12.0508 20.9256 12.0508 20.5908C12.0508 20.2561 12.164 19.9836 12.3906 19.7744C12.6171 19.5655 12.9066 19.461 13.2588 19.4609H15.0137V12.2051C15.0137 11.8703 15.1312 11.5859 15.3662 11.3516C15.6011 11.1174 15.8862 11.0001 16.2217 11H22.0645ZM17.3301 13.3105V19.5371H22.0645C22.5176 19.5371 22.9372 19.3905 23.3232 19.0977C23.7092 18.8048 24.0156 18.4158 24.2422 17.9307C24.4688 17.4454 24.582 16.9262 24.582 16.374C24.582 15.5205 24.3349 14.7963 23.8398 14.2021C23.3446 13.608 22.7527 13.3106 22.0645 13.3105H17.3301Z" fill="white"/>
</svg>
