<svg width="40" height="40" viewBox="0 0 40 40" fill="none" xmlns="http://www.w3.org/2000/svg">
<circle cx="20" cy="20" r="20" fill="#14A551"/>
<path d="M22.5977 23.5469C22.5977 22.8828 22.3867 22.3359 21.9648 21.9062C21.543 21.4688 20.8398 21.0781 19.8555 20.7344C18.8711 20.3828 18.1055 20.0586 17.5586 19.7617C15.7383 18.7852 14.8281 17.3398 14.8281 15.4258C14.8281 14.1289 15.2227 13.0625 16.0117 12.2266C16.7308 11.4648 17.6834 10.9852 18.8696 10.7879C19.07 10.7545 19.2227 10.585 19.2227 10.3819V8.58359C19.2227 8.36268 19.4017 8.18359 19.6227 8.18359H20.6977C20.9186 8.18359 21.0977 8.36268 21.0977 8.58359V10.4151C21.0977 10.614 21.2443 10.7813 21.4394 10.8202C22.6344 11.0586 23.5712 11.6173 24.25 12.4961C24.9265 13.3648 25.2946 14.4737 25.3546 15.8227C25.3644 16.0434 25.1842 16.2227 24.9633 16.2227H22.9273C22.7064 16.2227 22.5291 16.0432 22.5143 15.8228C22.4609 15.0265 22.2425 14.3863 21.8594 13.9023C21.4219 13.332 20.8242 13.0469 20.0664 13.0469C19.3164 13.0469 18.7305 13.25 18.3086 13.6562C17.8867 14.0625 17.6758 14.6445 17.6758 15.4023C17.6758 16.082 17.8828 16.6289 18.2969 17.043C18.7188 17.4492 19.4297 17.8359 20.4297 18.2031C21.4297 18.5703 22.2148 18.9102 22.7852 19.2227C23.3555 19.5352 23.8359 19.8945 24.2266 20.3008C24.6172 20.6992 24.918 21.1602 25.1289 21.6836C25.3398 22.207 25.4453 22.8203 25.4453 23.5234C25.4453 24.8438 25.0391 25.9141 24.2266 26.7344C23.4897 27.4856 22.4841 27.9551 21.21 28.1428C21.0071 28.1727 20.8516 28.3434 20.8516 28.5485V30.0727C20.8516 30.2936 20.6725 30.4727 20.4516 30.4727H19.3883C19.1674 30.4727 18.9883 30.2936 18.9883 30.0727V28.5572C18.9883 28.3534 18.8346 28.1833 18.6332 28.1521C17.2579 27.9386 16.1849 27.3996 15.4141 26.5352C14.6586 25.6799 14.2477 24.571 14.1814 23.2086C14.1707 22.9879 14.351 22.8086 14.5719 22.8086H16.6195C16.8404 22.8086 17.0175 22.9881 17.034 23.2084C17.0932 24.0016 17.3344 24.6301 17.7578 25.0938C18.2578 25.6328 18.9609 25.9023 19.8672 25.9023C20.7578 25.9023 21.4336 25.6875 21.8945 25.2578C22.3633 24.8281 22.5977 24.2578 22.5977 23.5469Z" fill="white"/>
</svg>
