<svg width="40" height="40" viewBox="0 0 40 40" fill="none" xmlns="http://www.w3.org/2000/svg">
<circle cx="20" cy="20" r="20" fill="#14A551"/>
<path fill-rule="evenodd" clip-rule="evenodd" d="M28.772 17.155L27.404 13.051C26.997 11.8255 25.8503 10.9989 24.559 11H15.441C14.1497 10.9989 13.003 11.8255 12.596 13.051L11.228 17.155C10.4842 17.4662 10 18.1937 10 19V24C10 24.738 10.404 25.376 11 25.723V28C11 28.5523 11.4477 29 12 29H13C13.5523 29 14 28.5523 14 28V26H26V28C26 28.5523 26.4477 29 27 29H28C28.5523 29 29 28.5523 29 28V25.723C29.6175 25.3689 29.9988 24.7119 30 24V19C30 18.1937 29.5158 17.4662 28.772 17.155ZM15.4407 13H24.5577C24.9887 13 25.3707 13.274 25.5067 13.684L26.6127 17H13.3867L14.4917 13.684C14.6278 13.2755 15.0101 12.9999 15.4407 13ZM13.5 22.999C12.9639 22.9989 12.4687 22.7127 12.2008 22.2484C11.9329 21.784 11.9331 21.212 12.2013 20.7479C12.4695 20.2837 12.9649 19.9979 13.501 19.998C14.3297 19.9983 15.0013 20.6703 15.001 21.499C15.0007 22.3277 14.3287 22.9993 13.5 22.999V22.999ZM26.5 22.999C25.9639 22.9989 25.4687 22.7127 25.2008 22.2484C24.9329 21.784 24.9331 21.212 25.2013 20.7479C25.4695 20.2837 25.9649 19.9979 26.501 19.998C27.0371 19.9982 27.5323 20.2844 27.8002 20.7487C28.0681 21.2131 28.0679 21.7851 27.7997 22.2492C27.5315 22.7134 27.0361 22.9992 26.5 22.999Z" fill="white"/>
</svg>
