<svg width="40" height="40" viewBox="0 0 40 40" fill="none" xmlns="http://www.w3.org/2000/svg">
<path d="M20 40C8.95431 40 0 31.0457 0 20C0 8.95431 8.95431 0 20 0C31.0457 0 40 8.95431 40 20C40 31.0457 31.0457 40 20 40Z" fill="#14A551"/>
<path d="M28.7224 20V26.1028C28.7224 27.783 28.7224 28.6231 28.3954 29.2648C28.1078 29.8293 27.6488 30.2882 27.0843 30.5759C26.4426 30.9028 25.6025 30.9028 23.9224 30.9028H16.0778C14.3977 30.9028 13.5576 30.9028 12.9159 30.5759C12.3514 30.2882 11.8924 29.8293 11.6048 29.2648C11.2778 28.6231 11.2778 27.783 11.2778 26.1028V20" fill="white"/>
<path d="M28.7224 20V26.1028C28.7224 27.783 28.7224 28.6231 28.3954 29.2648C28.1078 29.8293 27.6488 30.2882 27.0843 30.5759C26.4426 30.9028 25.6025 30.9028 23.9224 30.9028H16.0778C14.3977 30.9028 13.5576 30.9028 12.9159 30.5759C12.3514 30.2882 11.8924 29.8293 11.6048 29.2648C11.2778 28.6231 11.2778 27.783 11.2778 26.1028V20" stroke="#14A551" stroke-width="1.4" stroke-linecap="round" stroke-linejoin="round"/>
<path d="M28.1771 20H11.8229C11.1478 20 10.8102 20 10.5349 19.9193C9.88087 19.7277 9.36943 19.2163 9.17784 18.5623C9.09717 18.2869 9.09717 17.9494 9.09717 17.2743C9.09717 16.5992 9.09717 16.2617 9.17784 15.9863C9.36943 15.3323 9.88087 14.8209 10.5349 14.6293C10.8102 14.5486 11.1478 14.5486 11.8229 14.5486H28.1771C28.8522 14.5486 29.1898 14.5486 29.4651 14.6293C30.1191 14.8209 30.6306 15.3323 30.8222 15.9863C30.9028 16.2617 30.9028 16.5992 30.9028 17.2743C30.9028 17.9494 30.9028 18.2869 30.8222 18.5623C30.6306 19.2163 30.1191 19.7277 29.4651 19.9193C29.1898 20 28.8522 20 28.1771 20Z" fill="white" stroke="#14A551" stroke-width="1.4"/>
<path d="M16.0477 14.5486H20C20 11.2777 18.2283 9.09717 16.0477 9.09717C12.2317 9.09717 12.2317 14.5486 16.0477 14.5486Z" fill="white" stroke="#14A551" stroke-width="1.4"/>
<path d="M23.9523 14.5486H20C20 11.2777 21.7717 9.09717 23.9523 9.09717C27.7683 9.09717 27.7683 14.5486 23.9523 14.5486Z" fill="white" stroke="#14A551" stroke-width="1.4"/>
<path d="M20 14.5486V30.9028" stroke="#14A551" stroke-width="1.4"/>
</svg>
