<svg width="40" height="40" viewBox="0 0 40 40" fill="none" xmlns="http://www.w3.org/2000/svg">
<circle cx="20" cy="20" r="20" fill="#14A551"/>
<path d="M29.25 12.5C30.3546 12.5 31.25 13.3954 31.25 14.5V25.5C31.25 26.6046 30.3546 27.5 29.25 27.5H10.75C9.64543 27.5 8.75 26.6046 8.75 25.5V14.5C8.75 13.3954 9.64543 12.5 10.75 12.5H29.25ZM12.5625 15.3125C12.0102 15.3125 11.5625 15.7602 11.5625 16.3125V17.125C11.5625 17.6773 12.0102 18.125 12.5625 18.125H27.4375C27.9897 18.1249 28.4375 17.6772 28.4375 17.125V16.3125C28.4375 15.7603 27.9897 15.3126 27.4375 15.3125H12.5625Z" fill="white"/>
</svg>
