<svg width="40" height="40" viewBox="0 0 40 40" fill="none" xmlns="http://www.w3.org/2000/svg">
<circle cx="20" cy="20" r="20" fill="#14A551"/>
<path fill-rule="evenodd" clip-rule="evenodd" d="M14.5 13.0625C13.7061 13.0625 13.0625 13.7061 13.0625 14.5C13.0625 15.2939 13.7061 15.9375 14.5 15.9375C15.2939 15.9375 15.9375 15.2939 15.9375 14.5C15.9375 13.7061 15.2939 13.0625 14.5 13.0625ZM10.9375 14.5C10.9375 12.5325 12.5325 10.9375 14.5 10.9375C16.4675 10.9375 18.0625 12.5325 18.0625 14.5C18.0625 16.4675 16.4675 18.0625 14.5 18.0625C12.5325 18.0625 10.9375 16.4675 10.9375 14.5ZM27.7513 12.2487C28.1662 12.6636 28.1662 13.3364 27.7513 13.7513L13.7513 27.7513C13.3364 28.1662 12.6636 28.1662 12.2487 27.7513C11.8338 27.3364 11.8338 26.6636 12.2487 26.2487L26.2487 12.2487C26.6636 11.8338 27.3364 11.8338 27.7513 12.2487ZM25.5 24.0625C24.7061 24.0625 24.0625 24.7061 24.0625 25.5C24.0625 26.2939 24.7061 26.9375 25.5 26.9375C26.2939 26.9375 26.9375 26.2939 26.9375 25.5C26.9375 24.7061 26.2939 24.0625 25.5 24.0625ZM21.9375 25.5C21.9375 23.5325 23.5325 21.9375 25.5 21.9375C27.4675 21.9375 29.0625 23.5325 29.0625 25.5C29.0625 27.4675 27.4675 29.0625 25.5 29.0625C23.5325 29.0625 21.9375 27.4675 21.9375 25.5Z" fill="white"/>
</svg>
