<svg width="40" height="40" viewBox="0 0 40 40" fill="none" xmlns="http://www.w3.org/2000/svg">
<circle cx="20" cy="20" r="20" fill="#14A551"/>
<path d="M29 10C29.5523 10 30 10.4477 30 11V27C30 27.5523 29.5523 28 29 28H28V29C28 29.5523 27.5523 30 27 30C26.4477 30 26 29.5523 26 29V28H14V29C14 29.5523 13.5523 30 13 30C12.4477 30 12 29.5523 12 29V28H11C10.4477 28 10 27.5523 10 27V11C10 10.4477 10.4477 10 11 10H29ZM13 12C12.4477 12 12 12.4477 12 13V25C12 25.5523 12.4477 26 13 26H27C27.5523 26 28 25.5523 28 25V13C28 12.4477 27.5523 12 27 12H13ZM25.5 14C25.7761 14 26 14.2239 26 14.5V23.5C26 23.7761 25.7761 24 25.5 24H14.5C14.2239 24 14 23.7761 14 23.5V14.5C14 14.2239 14.2239 14 14.5 14H25.5ZM18 16C16.3431 16 15 17.3431 15 19C15 20.6569 16.3431 22 18 22C19.3059 22 20.4141 21.1647 20.8262 20H22.5L22.6162 19.9932C23.1135 19.9354 23.5 19.5128 23.5 19C23.5 18.4477 23.0523 18 22.5 18H20.8262C20.4141 16.8353 19.3059 16 18 16ZM18 18C18.5523 18 19 18.4477 19 19C19 19.5523 18.5523 20 18 20C17.4477 20 17 19.5523 17 19C17 18.4477 17.4477 18 18 18Z" fill="white"/>
</svg>
