<svg width="40" height="40" viewBox="0 0 40 40" fill="none" xmlns="http://www.w3.org/2000/svg">
<circle cx="20" cy="20" r="20" fill="#14A551"/>
<path fill-rule="evenodd" clip-rule="evenodd" d="M29.6998 20.0905L20.8458 10.3735C20.3918 9.8755 19.6068 9.8755 19.1528 10.3735L15.9998 13.8345V12.4995C15.9998 12.2235 15.7758 11.9995 15.4998 11.9995H14.4998C14.2228 11.9995 13.9998 12.2235 13.9998 12.4995V16.0295L10.2998 20.0905C9.63181 20.8235 10.1528 21.9995 11.1458 21.9995H12.9998V28.9995C12.9998 29.5525 13.4478 29.9995 13.9998 29.9995H16.9998C17.5518 29.9995 17.9998 29.5525 17.9998 28.9995V24.9995H21.9998V28.9995C21.9998 29.5525 22.4468 29.9995 22.9998 29.9995H25.9998C26.5528 29.9995 26.9998 29.5525 26.9998 28.9995V21.9995H28.8528C29.8458 21.9995 30.3678 20.8235 29.6998 20.0905" fill="white"/>
</svg>
