<svg width="40" height="40" viewBox="0 0 40 40" fill="none" xmlns="http://www.w3.org/2000/svg">
<circle cx="20" cy="20" r="20" fill="#14A551"/>
<path d="M19.2233 25.7803L17.6225 20.6756C17.3237 19.7228 16.4408 19.0743 15.4421 19.0743H10.7962C9.79757 19.0743 8.91463 19.7228 8.61578 20.6756L7.01505 25.7803C6.9208 26.2517 7.28129 26.6915 7.76199 26.6915H18.4763C18.9571 26.6915 19.3176 26.2517 19.2233 25.7803Z" fill="white"/>
<path d="M32.985 25.7803L31.3843 20.6756C31.0855 19.7227 30.2025 19.0742 29.2038 19.0742H24.558C23.5593 19.0742 22.6763 19.7227 22.3775 20.6756L20.7768 25.7803C20.6825 26.2516 21.043 26.6914 21.5237 26.6914H32.2381C32.7188 26.6914 33.0793 26.2516 32.985 25.7803Z" fill="white"/>
<path d="M26.0787 16.6397L24.478 11.5349C24.1792 10.5821 23.2962 9.93359 22.2976 9.93359H17.7025C16.7039 9.93359 15.8209 10.5821 15.522 11.5349L13.9213 16.6397C13.827 17.111 14.1875 17.5508 14.6682 17.5508H25.3318C25.8126 17.5508 26.173 17.111 26.0787 16.6397Z" fill="white"/>
</svg>
