<svg width="40" height="40" viewBox="0 0 40 40" fill="none" xmlns="http://www.w3.org/2000/svg">
<circle cx="20" cy="20" r="20" fill="#14A551"/>
<path d="M28.1575 19.7366C28.9675 19.7366 29.3731 19.7367 29.6848 19.8889C29.9846 20.0355 30.2277 20.2785 30.3743 20.5784C30.5265 20.8901 30.5266 21.2958 30.5266 22.1057C30.5266 22.9153 30.5264 23.3204 30.3743 23.6321C30.2277 23.9319 29.9846 24.175 29.6848 24.3215C29.3731 24.4738 28.9675 24.4739 28.1575 24.4739H25.5266C24.7165 24.4739 24.311 24.4738 23.9993 24.3215C23.6994 24.175 23.4564 23.9319 23.3098 23.6321C23.1577 23.3204 23.1575 22.9153 23.1575 22.1057C23.1575 21.2958 23.1576 20.8901 23.3098 20.5784C23.4564 20.2785 23.6994 20.0355 23.9993 19.8889C24.311 19.7366 24.7165 19.7366 25.5266 19.7366H28.1575ZM25.5266 21.3157C25.0906 21.3157 24.7366 21.6697 24.7366 22.1057C24.7368 22.5415 25.0908 22.8948 25.5266 22.8948C25.9623 22.8946 26.3154 22.5414 26.3157 22.1057C26.3157 21.6698 25.9625 21.3158 25.5266 21.3157Z" fill="white"/>
<path d="M10.2698 15.8228C9.47363 17.0365 9.47363 18.7261 9.47363 22.1053C9.47363 25.4844 9.47363 27.174 10.2698 28.3877C10.6144 28.9131 11.0573 29.3643 11.5731 29.7153C12.7646 30.5263 14.4232 30.5263 17.7405 30.5263H21.2834C24.6007 30.5263 26.2594 30.5263 27.4508 29.7153C27.9666 29.3643 28.4095 28.9131 28.7542 28.3877C29.1854 27.7303 29.383 26.9332 29.4736 25.8037C29.2429 25.8913 28.9998 25.9534 28.7475 25.9869C28.5357 26.015 28.2834 26.015 27.7788 26.015H25.4169C24.9123 26.015 24.66 26.015 24.4481 25.9869C22.9659 25.7903 21.7993 24.6019 21.6063 23.092C21.5787 22.8762 21.5787 22.6192 21.5787 22.1052C21.5787 21.5912 21.5787 21.3342 21.6063 21.1184C21.7993 19.6085 22.9659 18.4202 24.4481 18.2236C24.66 18.1955 24.9123 18.1955 25.4169 18.1955H27.7788C28.2834 18.1955 28.5357 18.1955 28.7475 18.2236C28.9998 18.257 29.2429 18.3192 29.4736 18.4068C29.383 17.2773 29.1854 16.4802 28.7542 15.8228C28.4095 15.2974 27.9666 14.8463 27.4508 14.4952C26.2594 13.6842 24.6007 13.6842 21.2834 13.6842H17.7405C14.4232 13.6842 12.7646 13.6842 11.5731 14.4952C11.0573 14.8463 10.6144 15.2974 10.2698 15.8228Z" fill="white"/>
<path d="M19.0895 9.87213L15.6595 10.6071C14.3158 10.8951 13.6439 11.039 13.1305 11.3096C12.2242 11.7873 11.5382 12.5697 11.1746 13.4951C11.9239 13.0517 12.7714 12.8474 13.7482 12.7445C14.8194 12.6316 16.1598 12.6316 17.8351 12.6316H21.1124C22.7876 12.6316 24.1281 12.6316 25.1993 12.7445C25.3017 12.7553 25.4028 12.7672 25.5024 12.7804C25.4057 12.3743 25.3093 12.0743 25.1802 11.8136C24.5105 10.4607 23.1677 9.56992 21.6609 9.47882C21.0869 9.44412 20.4211 9.58679 19.0895 9.87213Z" fill="white"/>
</svg>
